# xmcd
#
# Track frame offsets:
#	150
#	20585
#	39788
#	60111
#	86195
#	106472
#	124472
#	148408
#	163405
#	180400
#	200217
#
# Disc length: 2951 seconds
#
# Revision: 0
# Processed by: cddbd v1.5.2PL0 Copyright (c) Steve Scherf et al.
# Submitted via: dBpowerAMP V4.0
#
DISCID=a00b850b
DTITLE=The Alabastards - Sullivan Road
DYEAR=2011
DGENRE=Country
TTITLE0=Old Troubadours
TTITLE1=Roll On
TTITLE2=Jonesin'
TTITLE3=Steps of the Ryman
TTITLE4=Borrowed Piece of Mind
TTITLE5=Sullivan Road
TTITLE6=Father and Sons
TTITLE7=Highest Bidding
TTITLE8=Poets and Pirates
TTITLE9=He Said It Best
TTITLE10=Outta Beer
EXTD=
EXTT0=
EXTT1=
EXTT2=
EXTT3=
EXTT4=
EXTT5=
EXTT6=
EXTT7=
EXTT8=
EXTT9=
EXTT10=
PLAYORDER=
